<svg width="24" height="24" viewBox="0 0 24 24" fill="none" xmlns="http://www.w3.org/2000/svg">
<path d="M12 24C18.6274 24 24 18.6274 24 12C24 5.37258 18.6274 0 12 0C5.37258 0 0 5.37258 0 12C0 18.6274 5.37258 24 12 24Z" fill="#DBDBDB"/>
<path d="M6.5 15C7.88071 15 9 13.8807 9 12.5C9 11.1193 7.88071 10 6.5 10C5.11929 10 4 11.1193 4 12.5C4 13.8807 5.11929 15 6.5 15Z" fill="#707070"/>
<path d="M12.5 15C13.8807 15 15 13.8807 15 12.5C15 11.1193 13.8807 10 12.5 10C11.1193 10 10 11.1193 10 12.5C10 13.8807 11.1193 15 12.5 15Z" fill="#707070"/>
<path d="M18.5 15C19.8807 15 21 13.8807 21 12.5C21 11.1193 19.8807 10 18.5 10C17.1193 10 16 11.1193 16 12.5C16 13.8807 17.1193 15 18.5 15Z" fill="#707070"/>
</svg>
