<svg width="12" height="12" viewBox="0 0 12 12" fill="none" xmlns="http://www.w3.org/2000/svg">
<path d="M9.89205 2.10499C9.12194 1.33467 8.14069 0.810027 7.0724 0.597415C6.0041 0.384803 4.89675 0.493771 3.89039 0.910538C2.88403 1.32731 2.02386 2.03315 1.41868 2.93881C0.813497 3.84446 0.490479 4.90924 0.490479 5.99849C0.490479 7.08773 0.813497 8.15252 1.41868 9.05817C2.02386 9.96383 2.88403 10.6697 3.89039 11.0864C4.89675 11.5032 6.0041 11.6122 7.0724 11.3996C8.14069 11.1869 9.12194 10.6623 9.89205 9.89199C10.9248 8.85923 11.505 7.45852 11.505 5.99799C11.505 4.53746 10.9248 3.13675 9.89205 2.10399V2.10499ZM10.5921 6.50499C10.584 6.40909 10.6038 6.31291 10.6491 6.22799C10.7751 5.94599 10.9011 5.66499 11.0491 5.38799C11.178 6.37874 11.0037 7.3853 10.5491 8.27499C10.4821 7.91599 10.4231 7.57499 10.3771 7.22199C10.3717 7.19716 10.3724 7.17142 10.379 7.1469C10.3856 7.12238 10.398 7.09979 10.4151 7.08099C10.4884 7.00522 10.5426 6.91313 10.5734 6.8123C10.6042 6.71147 10.6106 6.60477 10.5921 6.50099V6.50499ZM5.89205 11.053C5.9502 10.8765 5.97264 10.6902 5.95805 10.505C5.97102 10.4388 5.96068 10.3702 5.92878 10.3107C5.89688 10.2513 5.84539 10.2048 5.78305 10.179C5.48542 10.0032 5.22599 9.76961 5.02005 9.49199C4.99505 9.46299 4.97705 9.42599 4.93005 9.42599C4.88305 9.42599 4.89205 9.39199 4.89205 9.36099C4.88005 9.23799 4.86505 9.11599 4.85605 8.99299C4.85408 8.92494 4.87321 8.85795 4.91081 8.8012C4.9484 8.74445 5.00263 8.70071 5.06605 8.67599C5.14405 8.64699 5.19105 8.61699 5.15805 8.52299C5.15149 8.48962 5.1539 8.45511 5.16505 8.42299C5.16933 8.40524 5.16891 8.38668 5.16382 8.36914C5.15874 8.3516 5.14916 8.3357 5.13605 8.32299C5.01205 8.19399 5.01205 8.19099 4.90605 8.33599C4.87205 8.38199 4.84605 8.39499 4.80005 8.35199C4.67366 8.23539 4.52101 8.151 4.35505 8.10599C4.29905 8.08999 4.27405 8.05999 4.28405 8.00599C4.28927 7.9724 4.28423 7.93801 4.2696 7.90733C4.25498 7.87665 4.23143 7.85109 4.20205 7.83399C4.09753 7.74326 3.96907 7.68459 3.83205 7.66499C3.80182 7.66373 3.77262 7.65365 3.74805 7.63599C3.62101 7.5401 3.48005 7.46423 3.33005 7.41099C3.30008 7.39281 3.2648 7.3854 3.23005 7.38999C3.00759 7.39643 2.78783 7.33993 2.59605 7.22699C2.49849 7.2045 2.41361 7.14471 2.3596 7.06041C2.30558 6.97612 2.28672 6.87402 2.30705 6.77599C2.31267 6.68875 2.28355 6.60283 2.22605 6.53699C2.10158 6.38086 2.0267 6.19105 2.01105 5.99199C2.01105 5.85399 1.89605 5.83099 1.81105 5.77499C1.78205 5.75499 1.77605 5.78099 1.77505 5.80399C1.743 5.95141 1.76501 6.10544 1.83705 6.23799C1.90744 6.34982 1.97057 6.46606 2.02605 6.58599C2.03705 6.60699 2.05605 6.62999 2.03105 6.64999C2.00605 6.66999 1.99205 6.64999 1.97505 6.63699C1.83405 6.51999 1.67505 6.42599 1.54105 6.29899C1.52748 6.28982 1.51637 6.27745 1.5087 6.26298C1.50103 6.2485 1.49703 6.23237 1.49705 6.21599C1.53905 5.74999 1.43705 5.29199 1.44305 4.83099C1.42928 4.60108 1.48541 4.37239 1.60405 4.17499C1.71161 3.99441 1.78896 3.79749 1.83305 3.59199C1.84705 3.54099 1.86305 3.49999 1.93305 3.51199C1.97905 3.51999 1.97905 3.48999 1.97905 3.45799V3.07599C1.97905 3.04199 1.97905 3.00899 2.01105 2.98799C2.10653 2.91376 2.17132 2.80696 2.19305 2.68799C2.21238 2.61108 2.25584 2.54239 2.31705 2.49199C2.40005 2.42699 2.46405 2.34399 2.53905 2.27399C3.09989 1.74519 3.77502 1.35271 4.51205 1.12699C4.54705 1.11599 4.58205 1.09899 4.58205 1.16299C4.58205 1.19099 4.61705 1.19099 4.63905 1.19899C4.73905 1.23199 4.83905 1.26499 4.93905 1.29899C5.0091 1.31813 5.083 1.31813 5.15305 1.29899C5.25047 1.27901 5.35182 1.29425 5.43905 1.34199C5.48205 1.36699 5.50205 1.35599 5.51505 1.30899C5.53305 1.24599 5.56505 1.18599 5.57805 1.12099C5.58796 1.08643 5.605 1.05433 5.62808 1.02677C5.65116 0.999214 5.67977 0.976802 5.71205 0.960988C5.75505 0.930988 5.77905 0.940988 5.78105 0.993988C5.78305 1.04699 5.78105 1.10199 5.78105 1.15699C5.78105 1.25699 5.80605 1.27799 5.90505 1.26999C5.98605 1.26399 6.06605 1.24999 6.14705 1.23999C6.16805 1.23999 6.19005 1.23099 6.20405 1.25399C6.21805 1.27699 6.19805 1.29199 6.18505 1.30699C6.12505 1.37399 6.06305 1.43999 6.00405 1.50699C5.99445 1.51825 5.98222 1.52698 5.96844 1.53238C5.95466 1.53779 5.93975 1.53972 5.92505 1.53799C5.88905 1.53799 5.85305 1.53799 5.81705 1.53799C5.69705 1.53799 5.69505 1.53799 5.72805 1.64899C5.74005 1.69199 5.72805 1.70999 5.68505 1.71699C5.62605 1.72599 5.56705 1.74299 5.50805 1.75099C5.32676 1.76932 5.15695 1.84823 5.02605 1.97499C4.9643 2.03042 4.918 2.10095 4.89171 2.17966C4.86541 2.25837 4.86002 2.34257 4.87605 2.42399C4.88205 2.44999 4.89105 2.46299 4.91605 2.45799C4.99166 2.45502 5.0656 2.48074 5.12305 2.52999C5.18038 2.56859 5.2398 2.60398 5.30105 2.63599C5.37478 2.66729 5.43519 2.72347 5.47174 2.79474C5.50829 2.86601 5.51866 2.94785 5.50105 3.02599C5.49428 3.06702 5.50094 3.10914 5.52004 3.14608C5.53914 3.18302 5.56966 3.2128 5.60705 3.23099C5.63905 3.25299 5.65305 3.25299 5.67705 3.22099C5.70453 3.19009 5.72508 3.15367 5.73733 3.11417C5.74957 3.07467 5.75323 3.03301 5.74805 2.99199C5.73759 2.95394 5.74213 2.91333 5.76074 2.87853C5.77935 2.84374 5.8106 2.81741 5.84805 2.80499C5.91897 2.77987 5.97786 2.72903 6.01305 2.66253C6.04824 2.59604 6.05716 2.51875 6.03805 2.44599C6.03156 2.41409 6.03261 2.38111 6.04111 2.34968C6.04962 2.31826 6.06535 2.28926 6.08705 2.26499C6.13367 2.19378 6.15417 2.10861 6.14505 2.02399C6.14505 1.97699 6.14505 1.93099 6.20505 1.91799C6.28005 1.90099 6.34405 1.80699 6.43305 1.88499C6.44861 1.89937 6.46612 1.91148 6.48505 1.92099C6.55654 1.95201 6.61788 2.00248 6.66208 2.06666C6.70628 2.13084 6.73156 2.20614 6.73505 2.28399C6.73719 2.31043 6.74654 2.33578 6.76208 2.35727C6.77763 2.37876 6.79877 2.39558 6.82321 2.4059C6.84765 2.41621 6.87445 2.41962 6.9007 2.41576C6.92694 2.41189 6.95162 2.4009 6.97205 2.38399C7.14005 2.28399 7.14905 2.28399 7.19005 2.47599C7.20098 2.54958 7.2289 2.61961 7.2716 2.68054C7.3143 2.74146 7.37061 2.79161 7.43605 2.82699C7.59154 2.91423 7.71965 3.04304 7.80605 3.19899C7.83505 3.24899 7.84005 3.28199 7.80005 3.32399C7.76005 3.36599 7.72405 3.43699 7.66105 3.47599C7.59619 3.51887 7.51833 3.53763 7.44105 3.52899C7.22305 3.50699 7.00305 3.49799 6.78705 3.45699C6.76896 3.45264 6.75002 3.45343 6.73236 3.45926C6.71469 3.46509 6.699 3.47573 6.68705 3.48999C6.62312 3.55183 6.56426 3.61871 6.51105 3.68999C6.61645 3.67628 6.71943 3.64801 6.81705 3.60599C6.89295 3.58784 6.97247 3.59201 7.04605 3.61799C7.08905 3.62699 7.08105 3.65599 7.07505 3.68799C7.04605 3.87699 7.04605 3.87699 7.21705 3.97499L7.36605 4.05999C7.38205 4.06899 7.39905 4.07799 7.39805 4.09999C7.39705 4.12199 7.37805 4.12799 7.36005 4.13199C7.18049 4.16866 7.00569 4.2257 6.83905 4.30199C6.79205 4.32299 6.75105 4.28599 6.71405 4.26599C6.62605 4.21699 6.55305 4.26599 6.48705 4.30199C6.44305 4.32499 6.45805 4.39699 6.46005 4.44599C6.46005 4.52199 6.43305 4.54599 6.36005 4.54099C6.31205 4.53599 6.26005 4.54699 6.21505 4.54099C6.14133 4.52974 6.06594 4.53932 5.99738 4.56866C5.92882 4.59799 5.86982 4.6459 5.82705 4.70699C5.67336 4.86557 5.57754 5.07129 5.55505 5.29099C5.54705 5.36899 5.51905 5.41599 5.43605 5.42999C5.36181 5.44326 5.2891 5.46404 5.21905 5.49199C5.15205 5.51799 5.06405 5.50199 5.01905 5.57999C4.92668 5.71516 4.88751 5.87969 4.90905 6.04199C4.9143 6.08076 4.92438 6.11872 4.93905 6.15499C4.95863 6.20845 4.96522 6.2658 4.95827 6.32231C4.95131 6.37882 4.93101 6.43287 4.89905 6.47999C4.87705 6.52799 4.85305 6.52399 4.81805 6.49099C4.71415 6.39827 4.63625 6.28004 4.59205 6.14799C4.57143 6.08702 4.53368 6.03327 4.48331 5.99319C4.43295 5.95311 4.3721 5.92839 4.30805 5.92199C4.13815 5.88045 3.9594 5.89447 3.79805 5.96199C3.72538 5.98111 3.64879 5.97938 3.57705 5.95699C3.49501 5.95321 3.41302 5.96566 3.3358 5.99363C3.25858 6.0216 3.18764 6.06454 3.12705 6.11999C3.10105 6.13899 3.10505 6.16699 3.10405 6.19399C3.10038 6.39428 3.10839 6.59463 3.12805 6.79399C3.13051 6.82698 3.14554 6.85777 3.17005 6.87999C3.22805 6.93699 3.28805 6.99199 3.34205 7.05199C3.35919 7.07245 3.38113 7.08837 3.4059 7.09831C3.43067 7.10825 3.45752 7.11192 3.48405 7.10899C3.51335 7.1105 3.54239 7.10283 3.56713 7.08706C3.59186 7.07129 3.61106 7.04819 3.62205 7.02099C3.66425 6.9361 3.72927 6.86465 3.80982 6.81466C3.89037 6.76467 3.98325 6.73812 4.07805 6.73799C4.13605 6.73799 4.13205 6.76099 4.12205 6.80499C4.07298 6.98201 4.00596 7.15357 3.92205 7.31699C3.89105 7.38199 3.91005 7.39499 3.97305 7.39999C4.12671 7.39449 4.28003 7.41789 4.42505 7.46899C4.47305 7.49199 4.49805 7.51599 4.49305 7.56899C4.49224 7.58398 4.49224 7.599 4.49305 7.61399C4.50005 7.86199 4.50105 7.85999 4.70505 7.99999C4.72236 8.01297 4.74342 8.01999 4.76505 8.01999C4.78669 8.01999 4.80774 8.01297 4.82505 7.99999C4.95905 7.92499 4.96305 7.92399 5.08205 8.03099C5.14105 8.08499 5.18205 8.09099 5.23005 8.02299C5.23805 8.01099 5.25305 8.00299 5.26105 7.99099C5.31657 7.92543 5.38634 7.87343 5.46502 7.83894C5.5437 7.80445 5.62922 7.78839 5.71505 7.79199C5.76205 7.78499 5.78405 7.79899 5.77905 7.84899C5.77405 7.89899 5.77105 7.94899 5.76605 8.01699C5.84505 7.96299 5.91205 7.91699 5.97605 7.87199C5.99004 7.86115 6.00639 7.85377 6.02377 7.85047C6.04115 7.84717 6.05907 7.84803 6.07605 7.85299C6.32006 7.91863 6.56993 7.96017 6.82205 7.97699C6.86764 7.97732 6.91134 7.99523 6.94405 8.02699L6.95805 8.03799C7.18069 8.25559 7.46553 8.39853 7.77305 8.44699C7.83805 8.45599 7.86205 8.49299 7.88105 8.55499C7.90904 8.61934 7.91733 8.69054 7.90487 8.7596C7.89241 8.82866 7.85976 8.89247 7.81105 8.94299C7.83505 8.97599 7.86105 8.96299 7.88305 8.96299C8.10905 8.96299 8.33505 8.96999 8.56005 8.96299C8.59118 8.96124 8.62226 8.96706 8.65065 8.97995C8.67904 8.99283 8.70388 9.01241 8.72305 9.03699C8.78124 9.1071 8.84334 9.17387 8.90905 9.23699C8.95805 9.28299 8.95905 9.31399 8.91705 9.36999C8.80496 9.51307 8.66977 9.63643 8.51705 9.73499C8.42235 9.79399 8.34882 9.88153 8.30705 9.98499C8.26906 10.092 8.20811 10.1895 8.12847 10.2705C8.04883 10.3515 7.95244 10.4142 7.84605 10.454C7.73915 10.508 7.62322 10.5419 7.50405 10.554C7.46714 10.552 7.4304 10.5603 7.39792 10.578C7.36544 10.5956 7.33848 10.6219 7.32005 10.654C7.30101 10.6846 7.27406 10.7095 7.24205 10.726L6.71005 11.033C6.65127 11.0563 6.58827 11.0672 6.52505 11.065C6.33068 11.0888 6.13481 11.0981 5.93905 11.093C5.91605 11.093 5.86005 11.106 5.88805 11.054L5.89205 11.053ZM5.39205 1.13899C5.40205 1.19299 5.37605 1.21099 5.32105 1.21099C5.17063 1.20878 5.02043 1.19877 4.87105 1.18099C4.79905 1.17499 4.79205 1.12499 4.78705 1.08099C4.78205 1.03699 4.83005 1.03999 4.85505 1.03399C5.07654 0.982085 5.30144 0.945995 5.52805 0.925988C5.52246 0.94062 5.51401 0.953992 5.50319 0.965324C5.49237 0.976655 5.47941 0.98572 5.46505 0.991988C5.43831 1.00493 5.41663 1.02639 5.40341 1.053C5.3902 1.07961 5.3862 1.10986 5.39205 1.13899ZM8.59205 2.09199C8.63206 2.17635 8.64765 2.27023 8.63705 2.36299C8.63756 2.37935 8.63431 2.39561 8.62755 2.41052C8.62079 2.42543 8.6107 2.43859 8.59805 2.44899C8.50505 2.53299 8.50905 2.52899 8.40905 2.44899C8.10851 2.18518 7.84211 1.88486 7.61605 1.55499C7.50856 1.43389 7.40902 1.30595 7.31805 1.17199C7.28305 1.11399 7.20105 1.10299 7.13705 1.05799C7.15274 1.0508 7.1698 1.04708 7.18705 1.04708C7.20431 1.04708 7.22136 1.0508 7.23705 1.05799C7.73839 1.18574 8.21773 1.38799 8.65905 1.65799C8.71905 1.69399 8.73005 1.72799 8.70005 1.78399C8.65905 1.86699 8.65705 1.96799 8.57905 2.03199C8.55505 2.05099 8.57605 2.07699 8.59205 2.09199ZM8.22805 4.02799C8.20405 4.04599 8.18205 4.02799 8.16205 4.01799C8.11257 3.98075 8.056 3.954 7.99582 3.93938C7.93564 3.92477 7.87311 3.92259 7.81205 3.93299H7.74005C7.58005 3.93299 7.55705 3.91499 7.54605 3.75499C7.54605 3.74599 7.54605 3.73399 7.54605 3.72899C7.61672 3.65986 7.69487 3.59882 7.77905 3.54699C7.81705 3.51699 7.85205 3.55499 7.88705 3.56599C7.97707 3.59565 8.05696 3.64999 8.1176 3.72283C8.17824 3.79567 8.2172 3.88408 8.23005 3.97799C8.23005 3.99599 8.24505 4.01499 8.23005 4.02699L8.22805 4.02799ZM7.25805 1.52799C7.28506 1.57006 7.29942 1.619 7.29942 1.66899C7.29942 1.71898 7.28506 1.76792 7.25805 1.80999C7.23705 1.82999 7.21905 1.81699 7.20105 1.80999L7.03505 1.73199L7.11305 1.93199C7.11771 1.93983 7.12041 1.94868 7.12093 1.95779C7.12146 1.9669 7.11979 1.976 7.11606 1.98433C7.11234 1.99266 7.10667 1.99997 7.09954 2.00565C7.0924 2.01134 7.084 2.01522 7.07505 2.01699C6.97505 2.05599 6.88105 2.08299 6.79405 1.97699C6.67299 1.85911 6.5261 1.77112 6.36505 1.71999C6.29705 1.68899 6.28705 1.65799 6.34505 1.61299C6.42724 1.5301 6.47693 1.42044 6.48505 1.30399C6.48713 1.28371 6.48498 1.26322 6.47872 1.24383C6.47246 1.22443 6.46223 1.20654 6.44869 1.19131C6.43515 1.17608 6.41859 1.16382 6.40006 1.15533C6.38153 1.14684 6.36143 1.1423 6.34105 1.14199C6.22405 1.14199 6.10605 1.14199 5.98905 1.14199C5.96005 1.14199 5.91305 1.16299 5.90605 1.11599C5.89905 1.06899 5.87905 1.01599 5.93005 0.974988C5.95458 0.950818 5.98388 0.932023 6.01608 0.919799C6.04827 0.907575 6.08266 0.90219 6.11705 0.903988C6.21705 0.915988 6.31705 0.915988 6.42305 0.923988C6.48424 0.925545 6.54445 0.939767 6.59987 0.965756C6.65529 0.991746 6.70472 1.02894 6.74505 1.07499C6.89205 1.24499 7.09205 1.36899 7.25805 1.52699V1.52799ZM7.04405 7.64499C7.03305 7.68699 7.07605 7.75899 7.01305 7.76799C6.95005 7.77699 6.96205 7.69799 6.94605 7.65699C6.91805 7.58499 6.90205 7.50899 6.88005 7.43399C6.87505 7.41599 6.87005 7.39899 6.88805 7.38499C6.90605 7.37099 6.92105 7.38499 6.93705 7.39299C6.97737 7.4059 7.01108 7.434 7.03105 7.47132C7.05102 7.50865 7.05568 7.55228 7.04405 7.59299C7.04547 7.60896 7.04547 7.62502 7.04405 7.64099V7.64499ZM6.68605 7.25899C6.68605 7.30199 6.63105 7.29399 6.60005 7.30899C6.57826 7.31814 6.55587 7.32582 6.53305 7.33199C6.42505 7.36799 6.37205 7.33199 6.34505 7.22199C6.34505 7.20299 6.33805 7.18399 6.35805 7.17599C6.40705 7.15399 6.45805 7.13499 6.50305 7.11599C6.54084 7.12018 6.57786 7.1296 6.61305 7.14399C6.63407 7.15528 6.65182 7.17179 6.6646 7.19193C6.67739 7.21207 6.68478 7.23517 6.68605 7.25899ZM6.27405 7.15899C6.15948 7.23379 6.02352 7.26892 5.88705 7.25899C5.82505 7.24699 5.74605 7.29099 5.72105 7.19199C5.71405 7.16499 5.71205 7.14699 5.73905 7.13299C5.8168 7.08186 5.90563 7.05002 5.99815 7.0401C6.09068 7.03019 6.18424 7.04249 6.27105 7.07599C6.33505 7.10699 6.31005 7.12999 6.27405 7.15999V7.15899ZM5.38105 7.09199C5.3434 7.10404 5.3027 7.10242 5.26611 7.08742C5.22953 7.07243 5.19941 7.04501 5.18105 7.00999C5.12679 6.94069 5.05867 6.88348 4.98105 6.84199C4.96598 6.83349 4.94932 6.82822 4.9321 6.8265C4.91489 6.82477 4.89751 6.82664 4.88105 6.83199C4.7681 6.84704 4.65689 6.87317 4.54905 6.90999C4.44905 6.94399 4.42905 6.86099 4.39105 6.80999C4.35305 6.75899 4.41805 6.74299 4.44105 6.70999C4.55405 6.56999 4.71005 6.60999 4.84905 6.63399C5.1346 6.69337 5.4032 6.81605 5.63505 6.99299C5.65405 7.00599 5.68205 7.01599 5.67305 7.04599C5.66405 7.07599 5.63505 7.07099 5.61305 7.07099C5.55905 7.07099 5.50505 7.07099 5.45005 7.07099V7.09199C5.42628 7.09307 5.40258 7.09541 5.37905 7.09899L5.38105 7.09199ZM5.40505 7.25599C5.40505 7.27899 5.38305 7.28299 5.36605 7.28699C5.29905 7.30299 5.23205 7.31899 5.16605 7.33199C5.08928 7.31139 5.01993 7.26943 4.96605 7.21099C4.95805 7.18499 4.96605 7.16999 4.99505 7.16899C5.02405 7.16799 5.06105 7.16899 5.09505 7.16899C5.18596 7.16902 5.2761 7.18563 5.36105 7.21799C5.38105 7.22299 5.40305 7.22799 5.40105 7.25599H5.40505Z" fill="#999999"/>
</svg>
